<svg xmlns="http://www.w3.org/2000/svg" width="22" height="40"><g fill-rule="nonzero" fill="none"><path d="M14.994 12.533L8.272.89A.594.594 0 0 1 8.787 0H21.2a.594.594 0 0 1 .514.891z" fill="#595b7b"/><path d="M14.335 12.83H.892a.594.594 0 0 1-.515-.891L6.586 1.188a.594.594 0 0 1 1.028 0l6.722 11.642z" fill="#424560"/><path d="M6.802 26.007L.08 14.365a.594.594 0 0 1 .515-.891h13.443zm14.25 0H7.609l7.236-12.533 6.722 11.642a.594.594 0 0 1-.515.89z" fill="#313244"/><path d="M14.255 38.294L7.533 26.652h13.443a.594.594 0 0 1 .515.891l-6.207 10.751a.594.594 0 0 1-1.03 0z" fill="#424560"/><path d="M13.009 39.332H.596a.594.594 0 0 1-.515-.89L6.8 26.8l6.722 11.641a.594.594 0 0 1-.514.891z" fill="#595b7b"/></g></svg>
