<svg preserveAspectRatio="xMidYMid slice" width="270" height="79" viewBox="0 0 272 79" xmlns="http://www.w3.org/2000/svg"><title>craft-cms-logo-knockout</title><path d="M140.254 16.15h-.041l-8.899 6.98-.668 3.517h-9.218l2.694-14.145c.635-5.336 8.761-3.721 9.972-3.418l1.298-6.816c-14.613-5.617-18.879 10.234-18.879 10.234l-2.693 14.145h-.047l-9.152 7.177h7.833L103.845 79h7.61l8.604-45.176h9.218l-3.369 17.684c-2.142 12.875 10.753 11.465 14.869 10.638l1.287-6.743c-9.845 2.223-8.547-3.895-8.547-3.895l3.37-17.684h11.734l1.367-7.177h-11.734l2-10.497zM79.92 26.819l-1.375 7.611c18.595-8.104 15.462 6.015 15.462 6.015l-.38 2.123s-10.902-5.596-18.534.635c0 0-4.47 2.98-4.47 8.941 0 5.962 5.464 9.166 5.464 9.166s8.218 4.336 14.653-2.594l-.71 3.225h7.197l4.523-21.455c3.395-21.17-21.83-13.667-21.83-13.667zm11.956 25.548c-7.918 8.125-12.989 2.804-12.989 2.804-3.433-3.342.361-6.774.361-6.774 5.238-4.787 13.253.473 13.253.473l-.625 3.497zm-18.4-25.698c-5.869.062-11.202 3.336-11.202 3.336l.682-3.212h-7.044l-6.427 35.215h7.198L61.04 38.84c3.221-6.544 11.182-4.51 11.182-4.51l1.254-7.661zM46.014 11.578c.364.275.709.566 1.048.863l5.462-4.286.17-.222a24.962 24.962 0 0 0-2.708-2.379C37.452-3.908 18.509.053 7.68 14.403-3.148 28.75-1.765 48.049 10.772 57.512c10.236 7.726 24.739 6.5 35.612-2.018l-.011-.022-5.2-4.079c-8.057 5.182-18.053 5.555-25.285.097-9.629-7.269-10.692-22.094-2.375-33.116 8.32-11.022 22.871-14.064 32.501-6.796zm117.884 22.319c1.291-1.345 2.843-2.415 4.654-3.211 1.811-.796 3.814-1.195 6.012-1.195 1.92 0 3.666.289 5.229.865a22.743 22.743 0 0 1 4.406 2.183l1.399-2.06a23.362 23.362 0 0 0-5.064-2.429c-1.84-.63-3.829-.947-5.971-.947-2.525 0-4.859.467-7 1.401-2.142.934-3.994 2.21-5.56 3.83-1.563 1.62-2.771 3.514-3.624 5.681-.851 2.169-1.275 4.488-1.275 6.96 0 2.471.438 4.775 1.318 6.917.878 2.142 2.086 4.009 3.623 5.601 1.536 1.593 3.376 2.84 5.518 3.746 2.141.907 4.475 1.359 7 1.359 2.142 0 4.131-.317 5.971-.947a23.205 23.205 0 0 0 5.064-2.43l-1.399-2.059a22.74 22.74 0 0 1-4.406 2.182c-1.563.576-3.31.865-5.229.865-2.197 0-4.201-.397-6.012-1.193-1.812-.796-3.363-1.895-4.654-3.295-1.289-1.399-2.291-3.047-3.004-4.941-.714-1.894-1.07-3.911-1.07-6.053 0-2.141.356-4.145 1.07-6.011.713-1.866 1.715-3.473 3.004-4.819zm75.438-4.034a8.82 8.82 0 0 0-3.294-2.101 11.607 11.607 0 0 0-3.913-.659c-2.855 0-5.518.77-7.987 2.306-2.471 1.538-4.53 3.35-6.177 5.435-.604-2.635-1.785-4.583-3.541-5.847-1.758-1.262-3.789-1.894-6.094-1.894-1.43 0-2.801.206-4.118.618-1.318.412-2.54.947-3.665 1.605a21.339 21.339 0 0 0-3.17 2.265 26.297 26.297 0 0 0-2.637 2.594v-6.424h-2.553v34.177h2.635V36.986c1.866-2.085 3.885-3.843 6.055-5.271 2.167-1.426 4.514-2.141 7.039-2.141 5.381 0 8.072 3.129 8.072 9.388v22.977h2.635V37.398c1.757-2.36 3.761-4.255 6.011-5.684 2.251-1.426 4.612-2.141 7.083-2.141 5.38 0 8.071 3.129 8.071 9.388v22.977h2.635V38.715c0-2.03-.275-3.774-.823-5.229-.549-1.454-1.304-2.663-2.264-3.623zm30.676 18.652c-.879-1.153-1.99-2.099-3.336-2.841a29.734 29.734 0 0 0-4.324-1.936 41.288 41.288 0 0 1-4.322-1.812c-1.346-.659-2.458-1.468-3.336-2.429-.879-.96-1.318-2.265-1.318-3.913 0-1.59.645-3.032 1.937-4.323 1.289-1.289 3.253-1.935 5.888-1.935 1.592 0 3.061.246 4.406.741 1.346.494 2.758 1.291 4.24 2.389l1.236-2.06c-1.537-1.097-3.115-1.92-4.735-2.471a15.952 15.952 0 0 0-5.147-.824c-1.646 0-3.102.248-4.365.742-1.263.494-2.334 1.153-3.211 1.977a8.682 8.682 0 0 0-2.019 2.801 7.777 7.777 0 0 0-.699 3.21c0 1.922.438 3.458 1.318 4.612.878 1.152 1.99 2.114 3.335 2.882a26.783 26.783 0 0 0 4.323 1.977 37.092 37.092 0 0 1 4.323 1.854c1.346.688 2.457 1.511 3.335 2.471.878.961 1.318 2.266 1.318 3.912 0 1.922-.741 3.541-2.224 4.858-1.482 1.318-3.459 1.978-5.93 1.978-1.977 0-3.816-.357-5.518-1.07a27.096 27.096 0 0 1-4.94-2.719l-1.235 1.977a26.61 26.61 0 0 0 5.516 2.924c1.923.74 3.98 1.112 6.178 1.112 1.646 0 3.115-.263 4.407-.784 1.288-.52 2.4-1.206 3.334-2.059a8.621 8.621 0 0 0 2.141-3.005 9.085 9.085 0 0 0 .742-3.624c-.001-1.921-.441-3.459-1.318-4.612z" fill="#FFF" fill-rule="evenodd"/></svg>