<?xml version="1.0" standalone="no"?>
<!DOCTYPE svg PUBLIC "-//W3C//DTD SVG 20010904//EN"
 "http://www.w3.org/TR/2001/REC-SVG-20010904/DTD/svg10.dtd">
<svg version="1.0" xmlns="http://www.w3.org/2000/svg"
 width="1280.000000pt" height="1280.000000pt" viewBox="0 0 1280.000000 1280.000000"
 preserveAspectRatio="xMidYMid meet">
<metadata>
Created by potrace 1.11, written by Peter Selinger 2001-2013
</metadata>
<g transform="translate(0.000000,1280.000000) scale(0.100000,-0.100000)"
fill="#000000" stroke="none">
<path d="M5620 12784 c-71 -31 -108 -83 -115 -164 -5 -63 -17 -38 356 -683
162 -279 303 -525 315 -546 11 -22 25 -45 31 -53 5 -7 21 -33 34 -58 13 -25
29 -52 35 -60 6 -8 25 -40 41 -70 17 -30 39 -71 51 -91 11 -20 26 -47 34 -60
7 -13 15 -26 18 -29 3 -3 16 -25 29 -50 14 -25 105 -184 203 -353 98 -169 178
-312 178 -317 0 -6 5 -10 10 -10 6 0 10 -5 10 -12 0 -6 13 -32 29 -57 46 -73
81 -135 88 -153 3 -10 9 -18 14 -18 5 0 9 -5 9 -10 0 -13 92 -174 102 -178 5
-2 8 -10 8 -17 0 -8 6 -20 13 -27 6 -8 27 -43 46 -79 19 -35 46 -82 60 -104
15 -22 33 -55 40 -72 7 -18 17 -33 22 -33 5 0 9 -4 9 -10 0 -5 20 -44 45 -86
25 -41 45 -78 45 -81 0 -3 8 -17 19 -31 10 -15 31 -49 45 -77 15 -27 35 -63
45 -80 10 -16 27 -46 38 -65 102 -178 143 -245 150 -247 5 -2 17 11 26 29 9
18 21 40 27 48 30 46 110 190 110 199 0 5 4 11 8 13 4 2 26 34 48 73 21 38 54
94 72 125 18 30 38 66 44 80 7 14 15 27 18 30 3 3 11 16 18 30 7 14 37 67 67
119 30 51 55 98 55 102 0 5 5 9 10 9 6 0 10 4 10 9 0 5 55 103 121 218 67 114
133 228 147 253 60 108 217 378 238 412 13 21 24 42 24 48 0 5 4 10 10 10 5 0
9 3 8 8 -1 4 4 18 13 32 50 81 79 132 79 140 0 5 6 15 13 22 7 7 23 34 37 61
14 26 28 47 32 47 5 0 8 9 8 20 0 11 5 20 10 20 6 0 10 4 10 10 0 10 87 163
121 212 11 15 19 30 19 34 0 3 19 39 43 78 23 39 51 88 62 109 11 21 28 47 38
57 9 11 17 23 17 27 0 7 68 131 101 183 25 41 129 222 129 226 0 2 16 28 35
58 19 30 35 57 35 60 0 2 21 40 46 83 26 43 57 96 69 118 13 22 61 105 106
186 93 161 91 157 90 216 -1 76 -58 153 -127 172 -27 8 -651 11 -2054 11
-1777 -1 -2019 -3 -2050 -16z"/>
<path d="M5114 12510 c-66 -14 -105 -48 -156 -140 -14 -25 -60 -106 -103 -180
-43 -74 -86 -148 -94 -165 -9 -16 -18 -32 -21 -35 -3 -3 -28 -43 -54 -90 -27
-47 -57 -100 -67 -117 -27 -48 -49 -86 -114 -198 -31 -55 -65 -113 -75 -130
-122 -210 -179 -308 -256 -444 -11 -20 -31 -54 -44 -76 -13 -22 -30 -53 -38
-70 -9 -16 -18 -32 -21 -35 -10 -8 -91 -152 -91 -161 0 -5 -4 -9 -9 -9 -5 0
-13 -10 -17 -22 -4 -13 -23 -50 -44 -83 -20 -34 -39 -68 -43 -75 -4 -8 -15
-28 -25 -45 -10 -16 -30 -50 -44 -75 -14 -25 -52 -91 -86 -147 -33 -56 -63
-111 -67 -123 -3 -11 -11 -20 -16 -20 -5 0 -9 -4 -9 -10 0 -5 -36 -70 -80
-146 -44 -75 -80 -138 -80 -141 0 -2 -16 -29 -35 -59 -19 -30 -35 -56 -35 -58
0 -4 -93 -166 -119 -206 -8 -14 -14 -28 -13 -32 1 -5 -2 -8 -7 -8 -5 0 -12 -9
-16 -20 -3 -10 -31 -60 -61 -110 -30 -50 -54 -93 -54 -95 0 -3 -15 -28 -32
-57 -92 -149 -110 -188 -110 -237 -1 -82 39 -146 112 -179 31 -14 253 -16
2198 -17 1190 0 2169 3 2175 7 9 6 9 8 0 8 -7 0 -13 7 -13 15 0 8 -4 15 -9 15
-5 0 -14 12 -20 28 -5 15 -24 52 -42 82 -52 91 -169 294 -179 310 -5 8 -42 71
-81 140 -40 69 -112 193 -160 277 -49 83 -98 168 -109 187 -31 55 -54 96 -93
161 -20 33 -47 80 -61 105 -13 25 -51 91 -85 148 -34 57 -61 108 -61 113 0 5
-3 9 -8 9 -4 0 -15 17 -25 38 -9 20 -23 46 -30 57 -27 43 -62 103 -90 155 -16
30 -36 62 -43 71 -8 8 -14 19 -14 23 0 4 -29 57 -65 117 -36 60 -65 112 -65
116 0 3 -6 14 -14 22 -7 9 -31 48 -51 86 -21 39 -41 75 -45 80 -5 6 -17 26
-28 45 -10 19 -45 80 -77 135 -148 256 -252 437 -297 514 -26 46 -48 88 -48
92 0 5 -4 9 -10 9 -5 0 -10 4 -10 10 0 5 -20 44 -45 86 -25 41 -45 79 -45 84
0 5 -3 10 -7 12 -5 2 -17 19 -27 38 -66 121 -184 321 -209 353 -41 53 -117 80
-183 67z"/>
<path d="M3000 8474 c-70 -30 -109 -85 -117 -166 -6 -57 -3 -62 136 -301 28
-49 51 -92 51 -97 0 -5 3 -10 8 -12 4 -1 61 -97 127 -212 66 -114 135 -233
153 -265 18 -31 38 -68 45 -83 6 -16 15 -28 19 -28 4 0 8 -5 8 -10 0 -6 11
-27 23 -48 21 -33 48 -79 94 -162 8 -14 23 -38 33 -55 11 -16 23 -37 27 -45 4
-8 26 -48 50 -88 24 -40 43 -77 43 -82 0 -6 3 -10 8 -10 4 0 12 -10 18 -23 16
-34 58 -111 64 -117 8 -8 100 -169 100 -175 0 -4 14 -26 30 -50 17 -24 30 -46
30 -50 0 -3 15 -30 34 -59 18 -29 37 -62 40 -74 4 -12 12 -22 17 -22 5 0 9 -5
9 -10 0 -6 38 -76 85 -156 47 -80 85 -148 85 -151 0 -4 6 -14 14 -22 7 -9 29
-45 48 -81 20 -36 57 -100 82 -143 25 -43 46 -82 46 -87 0 -6 5 -10 10 -10 6
0 10 -4 10 -10 0 -5 14 -33 31 -62 44 -73 67 -114 102 -178 16 -30 35 -61 41
-69 13 -16 32 -49 44 -76 6 -11 44 -78 86 -149 42 -70 76 -129 76 -131 0 -2
27 -49 60 -104 33 -56 60 -106 60 -111 0 -6 3 -10 8 -10 4 0 13 -15 21 -32 8
-18 17 -35 20 -38 3 -3 17 -25 30 -50 47 -88 42 -88 96 3 26 45 55 93 64 107
8 14 16 27 16 30 0 3 8 16 16 30 22 34 121 204 154 265 15 28 40 70 55 95 15
25 47 79 70 120 23 41 52 91 63 110 11 19 31 55 45 80 14 25 33 57 43 72 11
14 19 28 19 31 0 5 180 318 200 347 6 8 13 22 17 30 4 8 16 31 28 50 12 19 22
37 21 40 0 3 9 19 20 35 12 17 32 50 46 75 14 25 42 73 62 107 20 34 36 66 36
72 0 6 4 11 8 11 5 0 17 19 28 41 10 23 23 47 29 53 5 6 19 29 31 51 46 87
178 310 188 317 6 4 8 8 4 8 -4 0 14 35 39 78 25 42 60 102 76 132 17 30 38
67 49 82 10 14 18 28 18 31 0 3 34 62 75 132 41 69 75 128 75 130 0 2 25 44
55 94 30 50 55 95 55 100 0 5 3 11 8 13 4 2 14 17 23 33 8 17 60 107 114 200
54 94 110 191 124 216 71 127 186 325 191 329 3 3 15 23 26 45 12 22 34 61 48
87 l27 47 -2168 0 c-1892 0 -2172 -2 -2203 -15z"/>
<path d="M7573 8390 c-29 -50 -53 -94 -53 -100 0 -5 -4 -10 -9 -10 -5 0 -11
-8 -14 -17 -3 -10 -22 -45 -42 -78 -20 -33 -38 -68 -42 -77 -3 -10 -9 -18 -13
-18 -4 0 -10 -8 -13 -17 -3 -10 -19 -40 -36 -68 -16 -27 -36 -61 -44 -75 -7
-14 -23 -41 -34 -60 -11 -19 -113 -196 -227 -393 -113 -196 -206 -361 -206
-366 0 -5 -3 -11 -7 -13 -10 -4 -42 -57 -50 -80 -3 -10 -9 -18 -14 -18 -5 0
-9 -5 -9 -11 0 -8 -55 -108 -150 -269 -24 -41 -115 -198 -128 -220 -7 -14 -25
-43 -38 -65 -13 -22 -29 -52 -35 -67 -6 -16 -15 -28 -20 -28 -5 0 -9 -5 -9
-10 0 -6 -18 -40 -40 -76 -22 -36 -40 -69 -40 -74 0 -4 -8 -18 -18 -31 -10
-13 -32 -49 -48 -79 -16 -30 -31 -57 -34 -60 -3 -3 -30 -48 -59 -100 -64 -112
-63 -110 -181 -315 -51 -88 -104 -180 -118 -205 -14 -25 -36 -62 -49 -82 -12
-21 -23 -42 -23 -47 0 -5 -6 -16 -13 -23 -7 -7 -24 -33 -38 -58 -41 -72 -46
-81 -93 -162 -25 -43 -46 -82 -46 -88 0 -5 -4 -10 -8 -10 -4 0 -13 -12 -19
-28 -7 -15 -17 -34 -23 -42 -40 -58 -206 -360 -201 -367 8 -10 92 -10 109 0 6
5 12 5 12 0 0 -10 91 -10 108 1 7 4 12 4 12 -1 0 -4 33 -7 73 -6 39 2 79 3 87
3 8 0 35 0 60 0 25 0 51 0 58 0 6 0 32 0 57 0 25 0 52 0 60 0 8 0 35 0 60 0
25 0 52 0 60 0 8 0 35 0 60 0 25 0 53 0 63 0 9 0 71 -1 137 -3 66 -1 126 2
133 7 7 5 12 5 12 -1 0 -10 91 -10 108 1 7 4 12 4 12 -1 0 -10 91 -10 108 1 7
4 12 4 12 -1 0 -10 91 -10 108 1 7 4 12 4 12 -1 0 -4 33 -7 73 -6 39 2 79 3
87 3 8 0 35 0 60 0 25 0 51 0 58 0 6 0 32 0 57 0 25 0 52 0 60 0 8 0 35 0 60
0 25 0 52 0 60 0 8 0 35 0 60 0 25 0 51 0 58 0 6 0 63 -1 125 -3 61 -1 112 2
112 7 0 5 6 5 13 0 6 -5 31 -8 55 -7 23 2 49 3 57 3 8 0 35 0 60 0 25 0 53 0
63 0 9 0 37 0 62 0 25 0 51 0 58 0 6 0 32 0 57 0 25 0 52 0 60 0 8 0 35 0 60
0 25 0 51 0 58 0 6 0 32 -1 57 -3 25 -1 51 1 58 6 6 5 12 6 12 1 0 -11 91 -11
108 0 7 4 12 3 12 -1 0 -10 91 -9 108 1 7 4 12 4 12 -1 0 -10 91 -10 108 1 7
4 12 4 12 -1 0 -10 262 -9 278 1 7 4 12 4 12 -1 0 -10 131 -10 148 1 6 4 12 4
12 -1 0 -10 131 -10 148 1 6 4 12 4 12 -1 0 -10 131 -10 148 1 6 4 12 3 12 -2
0 -6 14 -7 34 -2 19 4 37 5 40 3 2 -3 11 -1 18 3 7 5 19 9 27 11 19 2 70 53
88 87 14 27 20 106 10 136 -13 42 -32 80 -39 80 -4 0 -8 4 -8 10 0 5 -32 64
-71 132 -69 117 -83 141 -130 226 -12 20 -29 48 -39 62 -10 14 -17 27 -17 30
1 5 -10 23 -50 88 -10 15 -18 29 -18 32 0 3 -26 48 -56 100 -31 52 -79 136
-107 185 -28 50 -56 95 -62 102 -5 7 -10 14 -10 17 0 2 -23 44 -51 93 -28 48
-59 102 -69 118 -10 17 -41 70 -69 118 -28 49 -51 93 -51 98 0 5 -4 9 -9 9 -5
0 -11 8 -14 18 -3 9 -19 40 -36 67 -33 54 -41 70 -91 160 -18 33 -41 71 -52
84 -10 13 -18 27 -18 31 0 6 -154 275 -200 350 -37 61 -176 307 -178 317 -2 7
-7 13 -10 13 -4 0 -13 15 -21 33 -8 17 -17 34 -21 37 -4 3 -20 30 -37 60 -16
30 -40 73 -53 95 -13 22 -30 51 -38 65 -7 14 -25 43 -38 65 -13 22 -32 56 -43
75 -10 20 -65 113 -120 208 -56 95 -101 175 -101 178 0 2 -11 21 -23 42 -13
20 -32 51 -43 67 -10 17 -19 32 -19 35 0 3 -27 50 -59 105 -32 55 -66 112 -75
128 -8 15 -18 27 -21 27 -3 0 -29 -41 -57 -90z"/>
<path d="M5323 4272 l-31 -3 61 -107 c34 -59 64 -109 67 -112 3 -3 15 -23 27
-45 11 -22 30 -56 42 -75 11 -19 24 -41 28 -49 3 -8 51 -90 105 -183 54 -93
98 -172 98 -175 0 -4 6 -14 14 -22 8 -9 26 -38 41 -66 14 -27 35 -63 45 -80
11 -16 26 -43 35 -60 8 -16 26 -48 40 -70 14 -22 28 -47 32 -55 4 -8 24 -43
45 -78 21 -34 38 -67 38 -72 0 -6 4 -10 10 -10 5 0 9 -3 8 -7 -1 -5 5 -19 14
-33 14 -22 126 -216 196 -340 14 -25 44 -76 67 -115 22 -38 44 -77 48 -85 4
-8 16 -28 26 -45 17 -28 67 -113 113 -195 11 -19 53 -91 93 -160 99 -171 184
-319 205 -355 26 -46 194 -337 335 -580 70 -121 141 -245 158 -275 17 -30 33
-57 36 -60 3 -3 18 -27 33 -55 100 -184 113 -202 168 -232 25 -14 52 -19 93
-18 98 3 119 25 273 291 73 126 137 234 143 241 6 7 11 19 11 26 0 8 7 20 15
27 8 7 15 16 15 20 0 5 28 55 62 112 34 56 70 119 80 138 11 19 25 44 31 55 7
11 24 40 37 64 14 24 30 51 35 60 6 9 55 95 110 191 55 96 103 177 107 178 5
2 8 8 8 13 0 4 20 43 45 85 25 41 45 77 45 79 0 1 37 65 81 141 45 77 91 155
102 174 50 90 101 177 115 200 9 14 17 27 17 30 0 3 26 48 57 100 129 220 198
342 198 350 0 6 3 10 8 10 4 0 12 10 18 23 23 49 59 112 67 115 4 2 7 10 7 18
0 8 5 14 10 14 6 0 10 5 10 10 0 6 32 65 70 131 39 66 70 124 70 129 0 6 5 10
10 10 6 0 10 4 10 9 0 4 23 48 51 97 254 439 249 429 249 481 0 69 -34 130
-92 166 l-46 29 -2143 1 c-1179 1 -2158 1 -2176 -1z"/>
<path d="M4914 3979 c-76 -132 -154 -269 -173 -302 -19 -34 -37 -64 -40 -67
-6 -5 -40 -65 -75 -135 -12 -22 -24 -42 -27 -45 -4 -3 -17 -23 -28 -45 -12
-22 -26 -47 -31 -55 -13 -21 -137 -236 -165 -285 -32 -57 -134 -235 -156 -270
-10 -16 -24 -41 -32 -55 -15 -28 -267 -466 -314 -545 -16 -27 -32 -57 -36 -65
-4 -8 -18 -33 -32 -55 -14 -22 -44 -74 -67 -115 -23 -41 -46 -78 -52 -82 -6
-4 -8 -8 -3 -8 4 0 -8 -24 -28 -52 -19 -29 -35 -56 -35 -61 0 -4 -16 -33 -35
-63 -19 -30 -35 -56 -35 -58 0 -8 -75 -131 -83 -137 -5 -3 -9 -10 -9 -15 0 -7
-53 -101 -105 -189 -7 -11 -17 -29 -23 -40 -5 -11 -26 -47 -45 -80 -20 -33
-38 -68 -42 -77 -3 -10 -9 -18 -14 -18 -5 0 -9 -4 -9 -9 0 -10 -153 -279 -170
-298 -5 -7 -10 -16 -10 -20 0 -5 -11 -24 -23 -43 -22 -32 -51 -84 -113 -196
-25 -47 -27 -130 -4 -174 18 -36 78 -89 109 -97 14 -4 940 -8 2058 -8 l2031 0
44 30 c61 44 89 96 86 165 -1 30 -9 69 -18 85 -10 17 -49 85 -89 152 -39 68
-71 127 -71 132 0 5 -4 11 -8 13 -5 2 -22 28 -39 58 -16 30 -71 126 -121 212
-95 163 -118 203 -160 278 -13 25 -30 52 -37 60 -6 8 -17 30 -25 48 -7 17 -15
32 -19 32 -3 0 -12 14 -20 30 -7 17 -38 72 -68 123 -30 50 -59 102 -64 114 -5
13 -13 23 -19 23 -5 0 -10 7 -10 16 0 9 -8 28 -19 42 -29 42 -211 364 -211
373 0 5 -3 9 -8 9 -4 0 -18 21 -32 48 -14 26 -50 90 -81 142 -30 52 -58 102
-62 110 -4 8 -16 29 -27 45 -11 17 -23 36 -27 44 -13 28 -205 356 -215 369 -6
6 -7 12 -3 12 5 0 1 8 -7 18 -14 16 -33 48 -80 132 -95 168 -164 286 -170 288
-5 2 -8 8 -8 13 0 4 -22 46 -50 93 -27 47 -50 88 -50 92 0 4 -6 15 -14 23 -7
9 -25 36 -38 61 -14 25 -38 68 -53 95 -15 28 -35 58 -44 69 -9 10 -16 21 -15
25 1 3 -4 15 -11 26 -13 20 -111 191 -147 255 -11 19 -23 38 -27 43 -4 4 -70
-101 -147 -234z"/>
</g>
</svg>
